<svg width="71" height="71" viewBox="0 0 71 71" fill="none" xmlns="http://www.w3.org/2000/svg">
<path fill-rule="evenodd" clip-rule="evenodd" d="M35.5 69C54.0015 69 69 54.0015 69 35.5C69 16.9985 54.0015 2 35.5 2C16.9985 2 2 16.9985 2 35.5C2 54.0015 16.9985 69 35.5 69ZM35.5 71C55.1061 71 71 55.1061 71 35.5C71 15.8939 55.1061 0 35.5 0C15.8939 0 0 15.8939 0 35.5C0 55.1061 15.8939 71 35.5 71Z" fill="#74CA91"/>
<path fill-rule="evenodd" clip-rule="evenodd" d="M24 36.6247L25.5052 35.3077L31.7526 42.4476L45.9948 27L47.5 28.317L31.7526 45.4848L24 36.6247Z" fill="#74CA91"/>
</svg>
