<svg width="31" height="30" viewBox="0 0 31 30" fill="none" xmlns="http://www.w3.org/2000/svg">
<circle cx="15.2953" cy="14.8953" r="14.8953" fill="white"/>
<path d="M18.0529 8.51172H12.3944C10.4709 8.51172 8.9115 10.0834 8.9115 12.0221V17.7253C8.9115 19.664 10.4709 21.2356 12.3944 21.2356H18.0529C19.9764 21.2356 21.5358 19.664 21.5358 17.7253V12.0221C21.5358 10.0834 19.9764 8.51172 18.0529 8.51172ZM20.4153 17.7253C20.4153 19.0428 19.3508 20.1063 18.0529 20.1063H12.3944C11.0871 20.1063 10.032 19.0334 10.032 17.7253V12.0221C10.032 10.7139 11.0965 9.64106 12.3944 9.64106H18.0529C19.3602 9.64106 20.4153 10.7139 20.4153 12.0221V17.7253Z" fill="#1A2044"/>
<path d="M15.2237 11.5996C13.431 11.5996 11.965 13.0678 11.965 14.8747C11.965 16.6816 13.4216 18.1592 15.2237 18.1592C17.0165 18.1592 18.4825 16.6911 18.4825 14.8747C18.4825 13.0678 17.0165 11.5996 15.2237 11.5996ZM15.2237 17.0299C14.0472 17.0299 13.0855 16.0699 13.0855 14.8841C13.0948 13.6889 14.0472 12.729 15.2237 12.729C16.4003 12.729 17.362 13.6889 17.362 14.8747C17.362 16.0605 16.4003 17.0299 15.2237 17.0299Z" fill="#1A2044"/>
<path d="M18.6131 10.6406C18.3983 10.6406 18.1836 10.7253 18.0342 10.8853C17.8848 11.0359 17.7914 11.2524 17.7914 11.4688C17.7914 11.6853 17.8754 11.9017 18.0342 12.0523C18.1836 12.2029 18.3983 12.297 18.6131 12.297C18.8279 12.297 19.0426 12.2123 19.192 12.0523C19.3414 11.9017 19.4348 11.6853 19.4348 11.4688C19.4348 11.2524 19.3508 11.0359 19.192 10.8853C19.0426 10.7253 18.8372 10.6406 18.6131 10.6406Z" fill="#1A2044"/>
</svg>
