<svg width="30" height="30" viewBox="0 0 30 30" fill="none" xmlns="http://www.w3.org/2000/svg">
<path d="M17.9212 15.2478L14.5288 13.6648C14.2328 13.5274 13.9896 13.6815 13.9896 14.0092V16.9908C13.9896 17.3185 14.2328 17.4726 14.5288 17.3352L17.9197 15.7522C18.2172 15.6133 18.2172 15.3867 17.9212 15.2478ZM15.5 1C7.49177 1 1 7.49177 1 15.5C1 23.5082 7.49177 30 15.5 30C23.5082 30 30 23.5082 30 15.5C30 7.49177 23.5082 1 15.5 1ZM15.5 21.3906C8.07781 21.3906 7.94792 20.7215 7.94792 15.5C7.94792 10.2785 8.07781 9.60937 15.5 9.60937C22.9222 9.60937 23.0521 10.2785 23.0521 15.5C23.0521 20.7215 22.9222 21.3906 15.5 21.3906Z" fill="white"/>
</svg>
