<svg width="31" height="30" viewBox="0 0 31 30" fill="none" xmlns="http://www.w3.org/2000/svg">
<path d="M15.5627 0C7.27837 0 0.562744 6.71562 0.562744 15C0.562744 23.2844 7.27837 30 15.5627 30C23.8471 30 30.5627 23.2844 30.5627 15C30.5627 6.71562 23.8471 0 15.5627 0ZM11.8909 21.2172H8.85337V11.4422H11.8909V21.2172ZM10.3534 10.2422C9.39399 10.2422 8.77368 9.5625 8.77368 8.72187C8.77368 7.86406 9.41274 7.20469 10.3924 7.20469C11.3721 7.20469 11.9721 7.86406 11.9909 8.72187C11.9909 9.5625 11.3721 10.2422 10.3534 10.2422ZM22.9846 21.2172H19.9471V15.8C19.9471 14.5391 19.5065 13.6828 18.4081 13.6828C17.569 13.6828 17.0706 14.2625 16.8502 14.8203C16.769 15.0188 16.7487 15.3 16.7487 15.5797V21.2156H13.7096V14.5594C13.7096 13.3391 13.6706 12.3187 13.6299 11.4406H16.269L16.4081 12.7984H16.469C16.869 12.1609 17.8487 11.2203 19.4877 11.2203C21.4862 11.2203 22.9846 12.5594 22.9846 15.4375V21.2172Z" fill="white"/>
</svg>
