<svg width="31" height="30" viewBox="0 0 31 30" fill="none" xmlns="http://www.w3.org/2000/svg">
<circle cx="15.8767" cy="14.8953" r="14.8953" fill="white"/>
<path fill-rule="evenodd" clip-rule="evenodd" d="M23.0982 14.9755C23.0084 11.3912 20.0527 8.51172 16.4194 8.51172C12.8296 8.51172 9.90116 11.3231 9.74331 14.8531C9.74059 14.951 9.73786 15.0463 9.73786 15.1443C9.73786 16.3989 10.089 17.5692 10.6959 18.5708L9.49292 22.1279L13.1943 20.9522C14.1523 21.4774 15.2518 21.7795 16.4221 21.7795C20.1126 21.7795 23.1037 18.8103 23.1037 15.147C23.1009 15.0871 23.1009 15.0327 23.0982 14.9755ZM16.4194 20.7181C15.279 20.7181 14.2176 20.3806 13.3277 19.7955L11.1694 20.484L11.8689 18.4129C11.1966 17.493 10.7993 16.3635 10.7993 15.1443C10.7993 14.9619 10.8075 14.7823 10.8265 14.6027C11.1014 11.7804 13.5046 9.57042 16.4167 9.57042C19.3669 9.57042 21.7918 11.8375 22.0177 14.7115C22.0313 14.8558 22.0368 15 22.0368 15.147C22.0368 18.2197 19.5166 20.7181 16.4194 20.7181Z" fill="#1A2044"/>
<path fill-rule="evenodd" clip-rule="evenodd" d="M19.2199 16.2869C19.0538 16.2053 18.251 15.8106 18.1013 15.7589C17.9516 15.7018 17.8427 15.6773 17.7311 15.8406C17.6223 16.0039 17.3066 16.3686 17.2113 16.4747C17.1133 16.5836 17.0208 16.5972 16.8548 16.5155C16.6915 16.4339 16.1635 16.2651 15.5375 15.7072C15.0531 15.2799 14.7211 14.7465 14.6285 14.5832C14.5333 14.4199 14.6204 14.3328 14.6993 14.2511C14.7755 14.1749 14.8626 14.0606 14.9469 13.9681C14.9687 13.9409 14.9878 13.9137 15.0068 13.8892C15.0449 13.8293 15.0721 13.7721 15.1102 13.6959C15.1674 13.5871 15.1375 13.4918 15.0966 13.4102C15.0558 13.3285 14.7265 12.5284 14.5904 12.2018C14.4571 11.8752 14.3183 11.9323 14.2203 11.9323C14.125 11.9323 14.0162 11.916 13.9073 11.916C13.7984 11.916 13.6188 11.9568 13.4691 12.1201C13.3194 12.2834 12.8976 12.6781 12.8976 13.4782C12.8976 13.666 12.933 13.8538 12.982 14.0334C13.148 14.605 13.5045 15.0785 13.5671 15.1602C13.6487 15.2663 14.6993 16.9619 16.3649 17.615C18.0332 18.2628 18.0332 18.0478 18.3326 18.0178C18.632 17.9933 19.3015 17.6259 19.4376 17.2449C19.5764 16.8666 19.5764 16.54 19.5356 16.472C19.492 16.4094 19.3832 16.3686 19.2199 16.2869Z" fill="#1A2044"/>
</svg>
