<svg width="31" height="30" viewBox="0 0 31 30" fill="none" xmlns="http://www.w3.org/2000/svg">
<circle cx="15.6673" cy="14.8953" r="14.8953" fill="white"/>
<path d="M22.7288 9.36328H9.04091C8.23446 9.36328 7.5813 10.0205 7.5813 10.8229V19.5806C7.5813 20.3877 8.23926 21.0402 9.04091 21.0402H22.7288C23.5285 21.0402 24.1884 20.3905 24.1884 19.5806V10.8229C24.1884 10.0219 23.5379 9.36328 22.7288 9.36328ZM22.5244 10.3364C22.2262 10.633 17.0942 15.738 16.917 15.9142C16.6413 16.1899 16.2747 16.3417 15.8849 16.3417C15.495 16.3417 15.1285 16.1899 14.8518 15.9133C14.7327 15.7948 9.65729 10.7461 9.24532 10.3364H22.5244ZM8.55437 19.3825V11.0216L12.7593 15.2043L8.55437 19.3825ZM9.24594 20.0671L13.4492 15.8906L14.1647 16.6023C14.6242 17.0618 15.2351 17.3148 15.8849 17.3148C16.5347 17.3148 17.1455 17.0618 17.6041 16.6032L18.3205 15.8906L22.5238 20.0671H9.24594ZM23.2154 19.3825L19.0104 15.2043L23.2154 11.0216V19.3825Z" fill="#1A2044"/>
</svg>
